                                                                        S      1
,,,17HEnclosure Lid CAD,22HAutoCAD 2020 - English,62HAutodesk TranslatioG      1
n Framework DWG producer (atf_dwg_producer),32,38,7,99,15,,1.,1,4HINCH, G      2
1,0.08,15H20210906.145742,0.000393700787401575,10000.,,7Hunknown,11,0,  G      3
15H20190419.163553;                                                     G      4
     186       1                       0                        00000000D      1
     186             -89       1       0                               0D      2
     514       2                                                00010000D      3
     514                       1       1                               0D      4
     510       3                                                00010000D      5
     510             -89       1       1                               0D      6
     510       4                                                00010000D      7
     510             -89       1       1                               0D      8
     510       5                                                00010000D      9
     510             -89       1       1                               0D     10
     510       6                                                00010000D     11
     510             -89       1       1                               0D     12
     510       7                                                00010000D     13
     510             -89       1       1                               0D     14
     510       8                                                00010000D     15
     510             -89       1       1                               0D     16
     510       9                                                00010000D     17
     510             -89       1       1                               0D     18
     508      10                                                00010000D     19
     508                       1       1                               0D     20
     508      11                                                00010000D     21
     508                       1       1                               0D     22
     508      12                                                00010000D     23
     508                       1       1                               0D     24
     508      13                                                00010000D     25
     508                       1       1                               0D     26
     508      14                                                00010000D     27
     508                       1       1                               0D     28
     508      15                                                00010000D     29
     508                       1       1                               0D     30
     508      16                                                00010000D     31
     508                       1       1                               0D     32
     508      17                                                00010000D     33
     508                       1       1                               0D     34
     508      18                                                00010000D     35
     508                       1       1                               0D     36
     126      19                                                00010000D     37
     126       0               8       0                               0D     38
     126      27                                                00010000D     39
     126       0               2       0                               0D     40
     126      29                                                00010000D     41
     126       0               9       0                               0D     42
     126      38                                                00010000D     43
     126       0               2       0                               0D     44
     126      40                                                00010000D     45
     126       0               2       0                               0D     46
     126      42                                                00010000D     47
     126       0               2       0                               0D     48
     126      44                                                00010000D     49
     126       0               2       0                               0D     50
     126      46                                                00010000D     51
     126       0               2       0                               0D     52
     126      48                                                00010000D     53
     126       0               2       0                               0D     54
     126      50                                                00010000D     55
     126       0               2       0                               0D     56
     126      52                                                00010000D     57
     126       0               6       0                               0D     58
     126      58                                                00010000D     59
     126       0               6       0                               0D     60
     126      64                                                00010000D     61
     126       0               3       0                               0D     62
     126      67                                                00010000D     63
     126       0               2       0                               0D     64
     126      69                                                00010000D     65
     126       0               2       0                               0D     66
     128      71                                                00010000D     67
     128       0     -89      12       0                               0D     68
     128      83                                                00010000D     69
     128       0     -89       4       0                               0D     70
     128      87                                                00010000D     71
     128       0     -89       4       0                               0D     72
     128      91                                                00010000D     73
     128       0     -89       9       0                               0D     74
     128     100                                                00010000D     75
     128       0     -89       5       0                               0D     76
     128     105                                                00010000D     77
     128       0     -89       5       0                               0D     78
     128     110                                                00010000D     79
     128       0     -89       5       0                               0D     80
     502     115                                                00010000D     81
     502                       3       1                               0D     82
     504     118                                                00010001D     83
     504                       4       1                               0D     84
     406     122                                                00000000D     85
     406                       1      15                               0D     86
     406     123                       0                        00000000D     87
     406             -89       1       3                               0D     88
     314     124                                                00000200D     89
     314                       1       0                               0D     90
186,3,1,0,0,1,85;                                                      1P      1
514,7,5,1,7,1,9,1,11,1,13,1,15,1,17,1;                                 3P      2
510,67,1,1,19;                                                         5P      3
510,69,1,1,21;                                                         7P      4
510,71,1,1,23;                                                         9P      5
510,73,1,1,25;                                                        11P      6
510,75,1,1,27;                                                        13P      7
510,77,2,1,29,31;                                                     15P      8
510,79,2,1,33,35;                                                     17P      9
508,4,0,83,1,0,0,0,83,2,1,0,0,83,3,0,0,0,83,2,0,0;                    19P     10
508,4,0,83,4,1,0,0,83,5,1,0,0,83,6,0,0,0,83,7,0,0;                    21P     11
508,4,0,83,8,1,0,0,83,7,1,0,0,83,9,0,0,0,83,10,0,0;                   23P     12
508,4,0,83,11,1,0,0,83,10,1,0,0,83,12,0,0,0,83,13,0,0;                25P     13
508,4,0,83,14,1,0,0,83,13,1,0,0,83,15,0,0,0,83,5,0,0;                 27P     14
508,4,0,83,15,1,0,0,83,12,1,0,0,83,9,1,0,0,83,6,1,0;                  29P     15
508,1,0,83,3,1,0;                                                     31P     16
508,4,0,83,14,0,0,0,83,4,0,0,0,83,8,0,0,0,83,11,0,0;                  33P     17
508,1,0,83,1,1,0;                                                     35P     18
126,8,2,0,1,0,0,-3.14159265358979,-3.14159265358979,                  37P     19
-3.14159265358979,-1.5707963267949,-1.5707963267949,0.,0.,            37P     20
1.5707963267949,1.5707963267949,3.14159265358979,                     37P     21
3.14159265358979,3.14159265358979,1.,0.707106781186548,1.,            37P     22
0.707106781186548,1.,0.707106781186548,1.,0.707106781186548,1.,       37P     23
-489.5,41.5,0.,-489.5,51.5,0.,-499.5,51.5,0.,-509.5,51.5,0.,          37P     24
-509.5,41.5,0.,-509.5,31.5,0.,-499.5,31.5,0.,-489.5,31.5,0.,          37P     25
-489.5,41.5,0.,-3.14159265358979,3.14159265358979,0.,0.,0.;           37P     26
126,1,1,0,0,1,0,0.,0.,0.558,0.558,1.,1.,-489.5,41.5,0.,-489.5,        39P     27
41.5,5.58,0.,0.558,0.,0.,0.;                                          39P     28
126,8,2,0,1,0,0,-3.14159265358979,-3.14159265358979,                  41P     29
-3.14159265358979,-1.5707963267949,-1.5707963267949,0.,0.,            41P     30
1.5707963267949,1.5707963267949,3.14159265358979,                     41P     31
3.14159265358979,3.14159265358979,1.,0.707106781186548,1.,            41P     32
0.707106781186548,1.,0.707106781186548,1.,0.707106781186548,1.,       41P     33
-489.5,41.5,5.58,-489.5,31.5,5.58,-499.5,31.5,5.58,-509.5,31.5,       41P     34
5.58,-509.5,41.5,5.58,-509.5,51.5,5.58,-499.5,51.5,5.58,-489.5,       41P     35
51.5,5.58,-489.5,41.5,5.58,-3.14159265358979,3.14159265358979,        41P     36
0.,0.,0.;                                                             41P     37
126,1,1,0,0,1,0,0.,0.,83.,83.,1.,1.,-601.,83.,0.,-601.,0.,0.,0.,      43P     38
83.,0.,0.,0.;                                                         43P     39
126,1,1,0,0,1,0,0.,0.,5.58,5.58,1.,1.,-601.,0.,0.,-601.,0.,5.58,      45P     40
0.,5.58,0.,0.,0.;                                                     45P     41
126,1,1,0,0,1,0,0.,0.,83.,83.,1.,1.,-601.,83.,5.58,-601.,0.,          47P     42
5.58,0.,83.,0.,0.,0.;                                                 47P     43
126,1,1,0,0,1,0,0.,0.,5.58,5.58,1.,1.,-601.,83.,0.,-601.,83.,         49P     44
5.58,0.,5.58,0.,0.,0.;                                                49P     45
126,1,1,0,0,1,0,0.,0.,86.5,86.5,1.,1.,-514.5,83.,0.,-601.,83.,        51P     46
0.,0.,86.5,0.,0.,0.;                                                  51P     47
126,1,1,0,0,1,0,0.,0.,86.5,86.5,1.,1.,-514.5,83.,5.58,-601.,83.,      53P     48
5.58,0.,86.5,0.,0.,0.;                                                53P     49
126,1,1,0,0,1,0,0.,0.,5.58,5.58,1.,1.,-514.5,83.,0.,-514.5,83.,       55P     50
5.58,0.,5.58,0.,0.,0.;                                                55P     51
126,4,2,0,0,0,0,0.,0.,0.,1.25184958789758,1.25184958789758,           57P     52
2.50369917579516,2.50369917579516,2.50369917579516,1.,                57P     53
0.810421678379293,1.,0.810421678379294,1.,-514.5,                     57P     54
-1.4210854715202D-14,0.,-484.5,9.90662650602407,0.,-484.5,41.5,       57P     55
0.,-484.5,73.0933734939759,0.,-514.5,83.,0.,0.,2.50369917579516,      57P     56
0.,0.,0.;                                                             57P     57
126,4,2,0,0,0,0,0.,0.,0.,1.25184958789758,1.25184958789758,           59P     58
2.50369917579516,2.50369917579516,2.50369917579516,1.,                59P     59
0.810421678379293,1.,0.810421678379294,1.,-514.5,                     59P     60
-1.4210854715202D-14,5.58,-484.5,9.90662650602407,5.58,-484.5,        59P     61
41.5,5.58,-484.5,73.0933734939759,5.58,-514.5,83.,5.58,0.,            59P     62
2.50369917579516,0.,0.,0.;                                            59P     63
126,1,1,0,0,1,0,0.,0.,5.58,5.58,1.,1.,-514.5,                         61P     64
-7.105427357601D-15,0.,-514.5,-7.105427357601D-15,5.58,0.,5.58,       61P     65
0.,0.,0.;                                                             61P     66
126,1,1,0,0,1,0,0.,0.,86.5,86.5,1.,1.,-601.,0.,0.,-514.5,             63P     67
-7.105427357601D-15,0.,0.,86.5,0.,0.,0.;                              63P     68
126,1,1,0,0,1,0,0.,0.,86.5,86.5,1.,1.,-601.,0.,5.58,-514.5,           65P     69
-7.105427357601D-15,5.58,0.,86.5,0.,0.,0.;                            65P     70
128,1,8,1,2,0,1,0,0,1,0.,0.,0.558,0.558,-3.14159265358979,            67P     71
-3.14159265358979,-3.14159265358979,-1.5707963267949,                 67P     72
-1.5707963267949,0.,0.,1.5707963267949,1.5707963267949,               67P     73
3.14159265358979,3.14159265358979,3.14159265358979,1.,1.,             67P     74
0.707106781186548,0.707106781186548,1.,1.,0.707106781186548,          67P     75
0.707106781186548,1.,1.,0.707106781186548,0.707106781186548,1.,       67P     76
1.,0.707106781186548,0.707106781186548,1.,1.,-489.5,41.5,0.,          67P     77
-489.5,41.5,5.58,-489.5,51.5,0.,-489.5,51.5,5.58,-499.5,51.5,0.,      67P     78
-499.5,51.5,5.58,-509.5,51.5,0.,-509.5,51.5,5.58,-509.5,41.5,0.,      67P     79
-509.5,41.5,5.58,-509.5,31.5,0.,-509.5,31.5,5.58,-499.5,31.5,0.,      67P     80
-499.5,31.5,5.58,-489.5,31.5,0.,-489.5,31.5,5.58,-489.5,41.5,0.,      67P     81
-489.5,41.5,5.58,0.,0.558,-3.14159265358979,3.14159265358979;         67P     82
128,1,1,1,1,0,0,1,0,0,-0.001,-0.001,83.001,83.001,-0.001,-0.001,      69P     83
5.581,5.581,1.,1.,1.,1.,-601.,83.001,-0.001,-601.,                    69P     84
-0.00100000000000477,-0.001,-601.,83.001,5.581,-601.,                 69P     85
-0.00100000000000477,5.581,-0.001,83.001,-0.001,5.581;                69P     86
128,1,1,1,1,0,0,1,0,0,-0.001,-0.001,86.501,86.501,-0.001,-0.001,      71P     87
5.581,5.581,1.,1.,1.,1.,-514.499,83.,-0.001,-601.001,83.,-0.001,      71P     88
-514.499,83.,5.581,-601.001,83.,5.581,-0.001,86.501,-0.001,           71P     89
5.581;                                                                71P     90
128,1,4,1,2,0,0,0,0,0,0.,0.,0.127676613595195,0.127676613595195,      73P     91
0.,0.,0.,1.25184958789758,1.25184958789758,2.50369917579516,          73P     92
2.50369917579516,2.50369917579516,1.,1.,0.810421678379293,            73P     93
0.810421678379293,1.,1.,0.810421678379293,0.810421678379293,1.,       73P     94
1.,-514.5,-1.4210854715202D-14,5.58,-514.5,-1.4210854715202D-14,      73P     95
0.,-484.5,9.90662650602407,5.58,-484.5,9.90662650602407,0.,           73P     96
-484.5,41.5,5.58,-484.5,41.5,0.,-484.5,73.0933734939759,5.58,         73P     97
-484.5,73.0933734939759,0.,-514.5,83.,5.58,-514.5,83.,0.,0.,          73P     98
0.127676613595195,0.,2.50369917579516;                                73P     99
128,1,1,1,1,0,0,1,0,0,-0.001,-0.001,86.501,86.501,-0.001,-0.001,      75P    100
5.581,5.581,1.,1.,1.,1.,-601.001,8.2143668874D-20,-0.001,             75P    101
-514.499,-7.10550950126988D-15,-0.001,-601.001,8.2143668874D-20,      75P    102
5.581,-514.499,-7.10550950126988D-15,5.581,-0.001,86.501,-0.001,      75P    103
5.581;                                                                75P    104
128,1,1,1,1,0,0,1,0,0,-47.8523422895761,-47.8523422895761,            77P    105
68.6496577104239,68.6496577104239,-41.501,-41.501,41.501,41.501,      77P    106
1.,1.,1.,1.,-601.001,-0.00100000000001188,5.58,-484.499,              77P    107
-0.00100000000001188,5.58,-601.001,83.001,5.58,-484.499,83.001,       77P    108
5.58,-47.8523422895761,68.6496577104239,-41.501,41.501;               77P    109
128,1,1,1,1,0,0,1,0,0,-47.8523422895761,-47.8523422895761,            79P    110
68.6496577104239,68.6496577104239,-41.501,-41.501,41.501,41.501,      79P    111
1.,1.,1.,1.,-484.499,-0.00100000000001188,0.,-601.001,                79P    112
-0.00100000000001188,0.,-484.499,83.001,0.,-601.001,83.001,0.,        79P    113
-47.8523422895761,68.6496577104239,-41.501,41.501;                    79P    114
502,10,-489.5,41.5,0.,-489.5,41.5,5.58,-601.,83.,0.,-601.,0.,0.,      81P    115
-601.,0.,5.58,-601.,83.,5.58,-514.5,83.,0.,-514.5,83.,5.58,           81P    116
-514.5,-7.105427357601D-15,0.,-514.5,-7.105427357601D-15,5.58;        81P    117
504,15,37,81,1,81,1,39,81,1,81,2,41,81,2,81,2,43,81,3,81,4,45,        83P    118
81,4,81,5,47,81,6,81,5,49,81,3,81,6,51,81,7,81,3,53,81,8,81,6,        83P    119
55,81,7,81,8,57,81,9,81,7,59,81,10,81,8,61,81,9,81,10,63,81,4,        83P    120
81,9,65,81,5,81,10;                                                   83P    121
406,1,2H7A;                                                           85P    122
406,2,0,1H0;                                                          87P    123
314,100.,100.,100.,;                                                  89P    124
S      1G      4D     90P    124                                        T      1
