<?xml version="1.0" standalone="no"?>
<svg viewBox="0 0 1024 768" version="1.1" xmlns="http://www.w3.org/2000/svg" xmlns:xlink="http://www.w3.org/1999/xlink" stroke-linecap="round" stroke-linejoin="round" fill-rule="evenodd" xml:space="preserve" >
<defs >
<clipPath id="clipId0" >
<path d="M0,768 1024,768 1024,0 0,0 z" />
</clipPath>
</defs>
<g clip-path="url(#clipId0)" fill="none" stroke="rgb(0,0,0)" stroke-width="0.1" />
<g clip-path="url(#clipId0)" fill="none" stroke="rgb(0,0,0)" stroke-width="0.25" >
<circle cx="884.7" cy="384" r="86.1735" />
<polyline points="10.0392,741.62 755.44,741.62 755.44,741.62 759.395,740.29 763.334,738.916 767.258,737.499 771.166,736.038 775.058,734.534 778.933,732.987 782.79,731.397 786.63,729.764 790.451,728.089 794.254,726.372 798.037,724.613 801.8,722.812 805.544,720.969 809.266,719.085 812.968,717.16 816.648,715.194 820.306,713.187 823.941,711.14 827.554,709.053 831.143,706.926 834.709,704.759 838.25,702.553 841.767,700.308 845.258,698.024 848.724,695.701 852.164,693.341 855.578,690.942 858.965,688.505 862.325,686.032 865.657,683.521 868.961,680.973 872.237,678.389 875.483,675.769 878.701,673.113 881.889,670.421 885.047,667.695 888.175,664.933 891.271,662.137 894.337,659.307 897.371,656.443 900.373,653.546 903.343,650.616 906.281,647.653 909.185,644.657 912.056,641.63 914.893,638.571 917.696,635.48 920.465,632.359 923.199,629.208 925.898,626.026 928.561,622.814 931.189,619.574 933.781,616.304 936.336,613.006 938.854,609.68 941.336,606.326 943.78,602.944 946.187,599.536 948.556,596.102 950.886,592.641 953.178,589.155 955.432,585.643 957.646,582.107 959.821,578.547 961.957,574.962 964.052,571.355 966.108,567.724 968.123,564.07 970.097,560.395 972.031,556.698 973.924,552.98 975.775,549.241 977.585,545.481 979.353,541.702 981.079,537.904 982.763,534.087 984.404,530.251 986.003,526.397 987.559,522.526 989.072,518.638 990.542,514.733 991.969,510.812 993.352,506.876 994.691,502.925 995.987,498.959 997.238,494.978 998.446,490.985 999.609,486.978 1000.73,482.958 1001.8,478.927 1002.83,474.883 1003.81,470.829 1004.75,466.764 1005.65,462.689 1006.5,458.604 1007.3,454.51 1008.06,450.407 1008.77,446.296 1009.44,442.178 1010.06,438.052 1010.64,433.92 1011.17,429.781 1011.65,425.637 1012.09,421.488 1012.48,417.334 1012.83,413.176 1013.13,409.015 1013.38,404.851 1013.59,400.684 1013.75,396.514 1013.87,392.344 1013.94,388.172 1013.96,384 1013.94,379.828 1013.87,375.656 1013.75,371.486 1013.59,367.316 1013.38,363.149 1013.13,358.985 1012.83,354.824 1012.48,350.666 1012.09,346.512 1011.65,342.363 1011.17,338.219 1010.64,334.08 1010.06,329.948 1009.44,325.822 1008.77,321.704 1008.06,317.593 1007.3,313.49 1006.5,309.396 1005.65,305.311 1004.75,301.236 1003.81,297.171 1002.83,293.117 1001.8,289.073 1000.73,285.042 999.609,281.022 998.446,277.015 997.238,273.022 995.987,269.041 994.691,265.075 993.352,261.124 991.969,257.188 990.542,253.267 989.072,249.362 987.559,245.474 986.003,241.603 984.404,237.749 982.763,233.913 981.079,230.096 979.353,226.298 977.585,222.519 975.775,218.759 973.924,215.02 972.031,211.302 970.097,207.605 968.123,203.93 966.108,200.276 964.052,196.645 961.957,193.038 959.821,189.453 957.646,185.893 955.432,182.357 953.178,178.845 950.886,175.359 948.556,171.898 946.187,168.464 943.78,165.056 941.336,161.674 938.854,158.32 936.336,154.994 933.781,151.696 931.189,148.426 928.561,145.186 925.898,141.974 923.199,138.792 920.465,135.641 917.696,132.52 914.893,129.429 912.056,126.37 909.185,123.343 906.281,120.347 903.343,117.384 900.373,114.454 897.371,111.557 894.337,108.693 891.271,105.863 888.175,103.067 885.047,100.305 881.889,97.5786 878.701,94.8871 875.483,92.2311 872.237,89.6109 868.961,87.0268 865.657,84.4792 862.325,81.9683 858.965,79.4946 855.578,77.0581 852.164,74.6594 848.724,72.2986 845.258,69.9761 841.767,67.6921 838.25,65.4469 834.709,63.2408 831.143,61.0741 827.554,58.947 823.941,56.8598 820.306,54.8128 816.648,52.8062 812.968,50.8402 809.266,48.9151 805.544,47.0311 801.8,45.1885 798.037,43.3874 794.254,41.6282 790.451,39.911 786.63,38.236 782.79,36.6034 778.933,35.0135 775.058,33.4664 771.166,31.9623 767.258,30.5015 763.334,29.084 759.395,27.7101 755.44,26.3799 10.0392,26.3799 10.0392,741.62 " />
</g>
</svg>
